<svg width="16" height="16" viewBox="0 0 16 16" fill="none" xmlns="http://www.w3.org/2000/svg">
<path d="M6.80371 5.25684H5.78711V6.47949H6.80371V7.31055H5.78711V11.333H4.76953V7.31055H4.03223V6.47949H4.76953V5.67773C4.76953 5.28584 4.87193 4.98046 5.07715 4.7627C5.28862 4.53878 5.59676 4.42684 6.00098 4.42676H6.80371V5.25684Z" fill="currentColor"/>
<path d="M9.7627 8.16895H9.79102L10.9014 6.48047H11.9932L10.332 8.86914L12.0215 11.333H10.8457L9.72559 9.56934H9.69727L8.53027 11.333H7.44824L9.15625 8.87891L7.49512 6.48047H8.6709L9.7627 8.16895Z" fill="currentColor"/>
<path fill-rule="evenodd" clip-rule="evenodd" d="M13.333 0.583008C14.4834 0.583008 15.4156 1.51574 15.416 2.66602V13.333C15.416 14.4836 14.4836 15.416 13.333 15.416H2.66602C1.51574 15.4156 0.583008 14.4834 0.583008 13.333V2.66602C0.583381 1.51597 1.51597 0.583381 2.66602 0.583008H13.333ZM2.66602 2.08301C2.3444 2.08338 2.08338 2.3444 2.08301 2.66602V13.333C2.08301 13.6549 2.34417 13.9156 2.66602 13.916H13.333C13.6552 13.916 13.916 13.6552 13.916 13.333V2.66602C13.9156 2.34417 13.6549 2.08301 13.333 2.08301H2.66602Z" fill="currentColor"/>
</svg>
