<svg width="32" height="32" viewBox="0 0 32 32" fill="none" xmlns="http://www.w3.org/2000/svg">
<path d="M3.00005 3H29V29H3L3.00005 3Z" stroke="currentColor" stroke-width="2"/>
<path d="M9.53899 22.6667V14.6214H8.06432V12.9601H9.53899V11.3547C9.53899 10.5707 9.74432 9.96097 10.155 9.52541C10.5781 9.07741 11.1941 8.85341 12.003 8.85341H13.6083V10.5147H11.5737V12.9601H13.6083V14.6214H11.5737V22.6667H9.53899ZM14.8961 22.6667L18.3121 17.7574L14.9894 12.9601H17.3414L19.5254 16.3387H19.5814L21.8027 12.9601H23.9867L20.6641 17.7387L24.0427 22.6667H21.6907L19.4507 19.1387H19.3947L17.0614 22.6667H14.8961Z" fill="currentColor"/>
</svg>
