<svg width="32" height="32" viewBox="0 0 32 32" fill="none" xmlns="http://www.w3.org/2000/svg">
<path d="M13.6084 10.5146H11.5732V12.96H13.6084V14.6211H11.5732V22.667H9.53906V14.6211H8.06445V12.96H9.53906V11.3545C9.5391 10.5706 9.74465 9.9609 10.1553 9.52539C10.5784 9.07752 11.1942 8.85352 12.0029 8.85352H13.6084V10.5146Z" fill="currentColor"/>
<path d="M19.5254 16.3389H19.5811L21.8027 12.96H23.9863L20.6641 17.7383L24.043 22.667H21.6904L19.4502 19.1387H19.3945L17.0615 22.667H14.8965L18.3115 17.7578L14.9893 12.96H17.3418L19.5254 16.3389Z" fill="currentColor"/>
<path fill-rule="evenodd" clip-rule="evenodd" d="M30 30H2V2H30V30ZM4 28H28V4H4V28Z" fill="currentColor"/>
</svg>
